#Comment line ignore any data following # character 
#Hierarchical Translation and Rotation (.htr) file 
[Header]	
#Header keywords are followed by a single value 
FileType HTR		#Single word string
DataType HTRS		#Translation followed by rotation and scale data
FileVersion 1		#integer
NumSegments 84		#integer
NumFrames 2		#integer
DataFrameRate 30		#integer, data frame rate in this file
EulerRotationOrder ZYX
CalibrationUnits mm
RotationUnits Degrees
GlobalAxisofGravity Y
BoneLengthAxis Y
ScaleFactor 1.00
[SegmentNames&Hierarchy]
#CHILD	PARENT
MASTER GLOBAL
root MASTER
chest root
L_mid_tent01 root
R_mid_tent01 root
spine01 root
Bip01_Neck chest
L_humerus chest
R_humerus chest
weapon_bone chest
Bip01_Head Bip01_Neck
eye_left_bone Bip01_Head
eye_right_bone Bip01_Head
L_forearm L_humerus
L_front_hand L_forearm
L_weapon_bone L_forearm
L_front_hand01_01 L_front_hand
L_front_hand02_01 L_front_hand
L_front_hand03_01 L_front_hand
L_front_hand01_02 L_front_hand01_01
L_front_hand02_02 L_front_hand02_01
L_front_hand03_02 L_front_hand03_01
R_forearm R_humerus
R_front_hand R_forearm
R_weapon_bone R_forearm
R_front_hand01_01 R_front_hand
R_front_hand02_01 R_front_hand
R_front_hand03_01 R_front_hand
R_front_hand01_02 R_front_hand01_01
R_front_hand02_02 R_front_hand02_01
R_front_hand03_02 R_front_hand03_01
null_rope01_connect L_mid_tent01
Rope1_Seg01 null_rope01_connect
Rope1_Seg02 Rope1_Seg01
Rope1_Seg03 Rope1_Seg02
Rope1_Seg04 Rope1_Seg03
Rope1_Seg05 Rope1_Seg04
Rope1_Seg06 Rope1_Seg05
Rope1_Seg07 Rope1_Seg06
Rope1_Seg09 Rope1_Seg07
L_mid_hand01 Rope1_Seg09
L_mid_hand02 Rope1_Seg09
L_mid_hand03 Rope1_Seg09
null_rope02_connect R_mid_tent01
Rope2_Seg01 null_rope02_connect
Rope2_Seg02 Rope2_Seg01
Rope2_Seg03 Rope2_Seg02
Rope2_Seg04 Rope2_Seg03
Rope2_Seg05 Rope2_Seg04
Rope2_Seg06 Rope2_Seg05
Rope2_Seg07 Rope2_Seg06
Rope2_Seg09 Rope2_Seg07
R_mid_hand01 Rope2_Seg09
R_mid_hand02 Rope2_Seg09
R_mid_hand03 Rope2_Seg09
spine02 spine01
spine03 spine02
pelvis spine03
null_rope03_connect pelvis
null_rope04_connect pelvis
Rope3_Seg01 null_rope03_connect
Rope3_Seg02 Rope3_Seg01
Rope3_Seg03 Rope3_Seg02
Rope3_Seg04 Rope3_Seg03
Rope3_Seg05 Rope3_Seg04
Rope3_Seg06 Rope3_Seg05
Rope3_Seg07 Rope3_Seg06
Rope3_Seg08 Rope3_Seg07
Rope3_Seg09 Rope3_Seg08
R_rear_hand01 Rope3_Seg09
R_rear_hand02 Rope3_Seg09
R_rear_hand03 Rope3_Seg09
Rope4_Seg01 null_rope04_connect
Rope4_Seg02 Rope4_Seg01
Rope4_Seg03 Rope4_Seg02
Rope4_Seg04 Rope4_Seg03
Rope4_Seg05 Rope4_Seg04
Rope4_Seg06 Rope4_Seg05
Rope4_Seg07 Rope4_Seg06
Rope4_Seg08 Rope4_Seg07
Rope4_Seg09 Rope4_Seg08
L_rear_hand01 Rope4_Seg09
L_rear_hand02 Rope4_Seg09
L_rear_hand03 Rope4_Seg09
[BasePosition]
#SegmentName Tx, Ty, Tz, Rx, Ry, Rz, BoneLength
MASTER 0.000000 0.000000 0.000000 -90.000000 0.000000 0.000000 10.000000 
root 0.000000 0.000000 0.000000 0.000000 0.000000 0.000000 10.000000 
chest 0.000000 0.000000 0.000000 0.000000 0.000000 0.000000 10.000000 
L_mid_tent01 0.000000 0.000000 0.000000 0.000000 0.000000 0.000000 10.000000 
R_mid_tent01 0.000000 0.000000 0.000000 0.000000 0.000000 0.000000 10.000000 
spine01 0.000000 0.000000 0.000000 0.000000 0.000000 0.000000 10.000000 
Bip01_Neck 0.000000 0.000000 0.000000 0.000000 0.000000 0.000000 10.000000 
L_humerus 0.000000 0.000000 0.000000 0.000000 0.000000 0.000000 10.000000 
R_humerus 0.000000 0.000000 0.000000 0.000000 0.000000 0.000000 10.000000 
weapon_bone 0.000000 0.000000 0.000000 0.000000 0.000000 0.000000 10.000000 
Bip01_Head 0.000000 0.000000 0.000000 0.000000 0.000000 0.000000 10.000000 
eye_left_bone 0.000000 0.000000 0.000000 0.000000 0.000000 0.000000 10.000000 
eye_right_bone 0.000000 0.000000 0.000000 0.000000 0.000000 0.000000 10.000000 
L_forearm 0.000000 0.000000 0.000000 0.000000 0.000000 0.000000 10.000000 
L_front_hand 0.000000 0.000000 0.000000 0.000000 0.000000 0.000000 10.000000 
L_weapon_bone 0.000000 0.000000 0.000000 0.000000 0.000000 0.000000 10.000000 
L_front_hand01_01 0.000000 0.000000 0.000000 0.000000 0.000000 0.000000 10.000000 
L_front_hand02_01 0.000000 0.000000 0.000000 0.000000 0.000000 0.000000 10.000000 
L_front_hand03_01 0.000000 0.000000 0.000000 0.000000 0.000000 0.000000 10.000000 
L_front_hand01_02 0.000000 0.000000 0.000000 0.000000 0.000000 0.000000 10.000000 
L_front_hand02_02 0.000000 0.000000 0.000000 0.000000 0.000000 0.000000 10.000000 
L_front_hand03_02 0.000000 0.000000 0.000000 0.000000 0.000000 0.000000 10.000000 
R_forearm 0.000000 0.000000 0.000000 0.000000 0.000000 0.000000 10.000000 
R_front_hand 0.000000 0.000000 0.000000 0.000000 0.000000 0.000000 10.000000 
R_weapon_bone 0.000000 0.000000 0.000000 0.000000 0.000000 0.000000 10.000000 
R_front_hand01_01 0.000000 0.000000 0.000000 0.000000 0.000000 0.000000 10.000000 
R_front_hand02_01 0.000000 0.000000 0.000000 0.000000 0.000000 0.000000 10.000000 
R_front_hand03_01 0.000000 0.000000 0.000000 0.000000 0.000000 0.000000 10.000000 
R_front_hand01_02 0.000000 0.000000 0.000000 0.000000 0.000000 0.000000 10.000000 
R_front_hand02_02 0.000000 0.000000 0.000000 0.000000 0.000000 0.000000 10.000000 
R_front_hand03_02 0.000000 0.000000 0.000000 0.000000 0.000000 0.000000 10.000000 
null_rope01_connect 0.000000 0.000000 0.000000 0.000000 0.000000 0.000000 10.000000 
Rope1_Seg01 0.000000 0.000000 0.000000 0.000000 0.000000 0.000000 10.000000 
Rope1_Seg02 0.000000 0.000000 0.000000 0.000000 0.000000 0.000000 10.000000 
Rope1_Seg03 0.000000 0.000000 0.000000 0.000000 0.000000 0.000000 10.000000 
Rope1_Seg04 0.000000 0.000000 0.000000 0.000000 0.000000 0.000000 10.000000 
Rope1_Seg05 0.000000 0.000000 0.000000 0.000000 0.000000 0.000000 10.000000 
Rope1_Seg06 0.000000 0.000000 0.000000 0.000000 0.000000 0.000000 10.000000 
Rope1_Seg07 0.000000 0.000000 0.000000 0.000000 0.000000 0.000000 10.000000 
Rope1_Seg09 0.000000 0.000000 0.000000 0.000000 0.000000 0.000000 10.000000 
L_mid_hand01 0.000000 0.000000 0.000000 0.000000 0.000000 0.000000 10.000000 
L_mid_hand02 0.000000 0.000000 0.000000 0.000000 0.000000 0.000000 10.000000 
L_mid_hand03 0.000000 0.000000 0.000000 0.000000 0.000000 0.000000 10.000000 
null_rope02_connect 0.000000 0.000000 0.000000 0.000000 0.000000 0.000000 10.000000 
Rope2_Seg01 0.000000 0.000000 0.000000 0.000000 0.000000 0.000000 10.000000 
Rope2_Seg02 0.000000 0.000000 0.000000 0.000000 0.000000 0.000000 10.000000 
Rope2_Seg03 0.000000 0.000000 0.000000 0.000000 0.000000 0.000000 10.000000 
Rope2_Seg04 0.000000 0.000000 0.000000 0.000000 0.000000 0.000000 10.000000 
Rope2_Seg05 0.000000 0.000000 0.000000 0.000000 0.000000 0.000000 10.000000 
Rope2_Seg06 0.000000 0.000000 0.000000 0.000000 0.000000 0.000000 10.000000 
Rope2_Seg07 0.000000 0.000000 0.000000 0.000000 0.000000 0.000000 10.000000 
Rope2_Seg09 0.000000 0.000000 0.000000 0.000000 0.000000 0.000000 10.000000 
R_mid_hand01 0.000000 0.000000 0.000000 0.000000 0.000000 0.000000 10.000000 
R_mid_hand02 0.000000 0.000000 0.000000 0.000000 0.000000 0.000000 10.000000 
R_mid_hand03 0.000000 0.000000 0.000000 0.000000 0.000000 0.000000 10.000000 
spine02 0.000000 0.000000 0.000000 0.000000 0.000000 0.000000 10.000000 
spine03 0.000000 0.000000 0.000000 0.000000 0.000000 0.000000 10.000000 
pelvis 0.000000 0.000000 0.000000 0.000000 0.000000 0.000000 10.000000 
null_rope03_connect 0.000000 0.000000 0.000000 0.000000 0.000000 0.000000 10.000000 
null_rope04_connect 0.000000 0.000000 0.000000 0.000000 0.000000 0.000000 10.000000 
Rope3_Seg01 0.000000 0.000000 0.000000 0.000000 0.000000 0.000000 10.000000 
Rope3_Seg02 0.000000 0.000000 0.000000 0.000000 0.000000 0.000000 10.000000 
Rope3_Seg03 0.000000 0.000000 0.000000 0.000000 0.000000 0.000000 10.000000 
Rope3_Seg04 0.000000 0.000000 0.000000 0.000000 0.000000 0.000000 10.000000 
Rope3_Seg05 0.000000 0.000000 0.000000 0.000000 0.000000 0.000000 10.000000 
Rope3_Seg06 0.000000 0.000000 0.000000 0.000000 0.000000 0.000000 10.000000 
Rope3_Seg07 0.000000 0.000000 0.000000 0.000000 0.000000 0.000000 10.000000 
Rope3_Seg08 0.000000 0.000000 0.000000 0.000000 0.000000 0.000000 10.000000 
Rope3_Seg09 0.000000 0.000000 0.000000 0.000000 0.000000 0.000000 10.000000 
R_rear_hand01 0.000000 0.000000 0.000000 0.000000 0.000000 0.000000 10.000000 
R_rear_hand02 0.000000 0.000000 0.000000 0.000000 0.000000 0.000000 10.000000 
R_rear_hand03 0.000000 0.000000 0.000000 0.000000 0.000000 0.000000 10.000000 
Rope4_Seg01 0.000000 0.000000 0.000000 0.000000 0.000000 0.000000 10.000000 
Rope4_Seg02 0.000000 0.000000 0.000000 0.000000 0.000000 0.000000 10.000000 
Rope4_Seg03 0.000000 0.000000 0.000000 0.000000 0.000000 0.000000 10.000000 
Rope4_Seg04 0.000000 0.000000 0.000000 0.000000 0.000000 0.000000 10.000000 
Rope4_Seg05 0.000000 0.000000 0.000000 0.000000 0.000000 0.000000 10.000000 
Rope4_Seg06 0.000000 0.000000 0.000000 0.000000 0.000000 0.000000 10.000000 
Rope4_Seg07 0.000000 0.000000 0.000000 0.000000 0.000000 0.000000 10.000000 
Rope4_Seg08 0.000000 0.000000 0.000000 0.000000 0.000000 0.000000 10.000000 
Rope4_Seg09 0.000000 0.000000 0.000000 0.000000 0.000000 0.000000 10.000000 
L_rear_hand01 0.000000 0.000000 0.000000 0.000000 0.000000 0.000000 10.000000 
L_rear_hand02 0.000000 0.000000 0.000000 0.000000 0.000000 0.000000 10.000000 
L_rear_hand03 0.000000 0.000000 0.000000 0.000000 0.000000 0.000000 10.000000 
#Beginning of Data. Separated by tabs
#Fr	Tx	Ty	Tz	Rx	Ry	Rz	SF
[MASTER]
3 151.327744 0.000023 0.000000 0.001660 0.001660 0.001660 151.327744
4 285.394531 0.000043 0.000000 0.001660 0.001660 0.001660 285.394531
[root]
3 -16.502295 -62.822109 1408.036865 -110.303703 -27.676086 -89.659157 1409.534180
4 -16.502285 -62.822109 1313.775269 -131.658035 -27.676790 -89.169228 1315.380005
[chest]
3 -84.512650 -34.090519 0.000000 -27.114052 5.262923 178.402466 91.129311
4 -84.512650 -34.090519 0.000000 -48.086601 7.168365 174.458847 91.129311
[L_mid_tent01]
3 27.378197 22.132376 -250.423813 -23.373045 18.737135 36.794228 252.886322
4 27.417543 22.109814 -250.676727 -28.566494 8.031593 23.673632 253.139053
[R_mid_tent01]
3 23.228794 24.509907 226.238495 -167.764603 -49.147419 45.828403 228.744751
4 23.228794 24.509907 226.238495 -155.772797 -45.259197 29.647505 228.744751
[spine01]
3 -0.361383 -0.195265 0.000000 -0.212536 0.631264 3.329443 0.410763
4 -0.361383 -0.195265 0.000000 0.676368 0.667461 -1.349595 0.410763
[Bip01_Neck]
3 165.484543 71.581718 0.000119 175.896118 1.177290 24.871183 180.302734
4 165.484543 71.581718 0.000119 175.896118 1.177290 24.871183 180.302734
[L_humerus]
3 -13.983130 -135.272980 -120.471481 170.940796 81.564224 -99.189163 181.680161
4 -13.983130 -135.272980 -120.471481 170.940796 81.564224 -99.189163 181.680161
[R_humerus]
3 -13.983309 -135.273102 125.287651 -159.666046 -68.957870 -101.166077 184.909012
4 -13.983309 -135.273102 125.287651 -159.666046 -68.957870 -101.166077 184.909012
[weapon_bone]
3 235.964890 -300.705902 0.000000 0.000000 -89.951546 -128.212341 382.234833
4 235.964890 -300.705902 0.000000 0.000000 -89.951546 -128.212341 382.234833
[Bip01_Head]
3 261.355865 108.959518 -2.864222 2.248029 5.843377 -62.458344 283.173584
4 261.355865 108.959518 -2.864229 2.248029 5.843377 -62.458344 283.173584
[eye_left_bone]
3 -24.626970 125.451866 -64.772606 0.000000 -90.000000 -99.840431 143.318359
4 -24.626970 125.451866 -64.772606 0.000000 -90.000000 -99.840431 143.318359
[eye_right_bone]
3 -24.626970 125.451866 64.327362 0.000000 -89.960434 80.159386 143.117676
4 -24.626970 125.451866 64.327362 0.000000 -89.960434 80.159386 143.117676
[L_forearm]
3 322.776093 0.000000 -0.000119 0.000471 0.002300 -66.859398 322.776093
4 322.776093 0.000000 -0.000119 0.000471 0.002300 -66.859398 322.776093
[L_front_hand]
3 241.149185 -0.042021 -3.300071 -178.667953 -1.835447 -27.422350 241.171753
4 241.149185 -0.042021 -3.300071 -178.667953 -1.835447 -27.422350 241.171753
[L_weapon_bone]
3 156.183838 0.000000 0.000000 0.002028 0.001182 29.501106 156.183838
4 156.183838 0.000000 0.000000 0.002126 0.000995 39.830204 156.183838
[L_front_hand01_01]
3 86.095154 20.947098 -0.655860 -0.345630 -0.486632 72.985954 88.609184
4 86.095154 20.947098 -0.655860 -0.358019 -0.483663 74.277168 88.609184
[L_front_hand02_01]
3 86.935165 -11.437475 24.513514 150.809296 -58.778587 -57.192558 91.046425
4 86.935165 -11.437475 24.513514 152.710815 -59.393673 -59.407352 91.046425
[L_front_hand03_01]
3 86.637497 -14.123976 -20.424902 -150.571686 56.997833 -58.742687 90.126129
4 86.637497 -14.123976 -20.424902 -152.345215 57.619305 -60.852303 90.126129
[L_front_hand01_02]
3 71.020905 -0.000179 0.000030 0.000334 -0.002323 -106.379379 71.020905
4 71.020905 -0.000179 0.000030 0.001534 0.001777 -8.378850 71.020905
[L_front_hand02_02]
3 71.020927 -0.000119 0.000060 0.000334 -0.002323 -106.379379 71.020927
4 71.020927 -0.000119 0.000060 0.001534 0.001777 -8.378850 71.020927
[L_front_hand03_02]
3 71.020905 -0.000060 0.000060 0.000334 -0.002323 -106.379379 71.020905
4 71.020905 -0.000060 0.000060 0.001534 0.001777 -8.378850 71.020905
[R_forearm]
3 322.776428 -0.000060 0.000030 0.199694 -0.075621 -69.903069 322.776428
4 322.776428 -0.000060 0.000030 0.199694 -0.075621 -69.903076 322.776428
[R_front_hand]
3 238.847015 -0.006795 2.210259 -1.531694 0.790216 -51.443054 238.857239
4 238.847015 -0.006795 2.210259 -1.531694 0.790216 -51.443054 238.857239
[R_weapon_bone]
3 155.664093 0.002503 -0.000030 0.003037 0.002080 -122.425827 155.664078
4 155.664093 0.002503 -0.000030 0.002838 0.002344 -132.705109 155.664078
[R_front_hand01_01]
3 87.624611 14.231146 22.918642 -151.019943 -58.847031 57.544685 91.683487
4 87.624611 14.231146 22.918642 -154.633499 -59.950619 61.746044 91.683487
[R_front_hand02_01]
3 89.356956 14.367283 -19.491137 151.211227 57.208401 59.740421 92.579636
4 89.356956 14.367283 -19.491137 154.602661 58.302849 63.744389 92.579636
[R_front_hand03_01]
3 87.286232 -22.307278 -0.143439 0.142368 -0.428417 -73.368439 90.091743
4 87.286232 -22.307278 -0.143439 0.162155 -0.423168 -75.767921 90.091743
[R_front_hand01_02]
3 71.020905 0.000060 0.000119 0.002323 -0.000334 106.381386 71.020905
4 71.020905 0.000060 0.000119 0.001777 0.001534 8.377220 71.020905
[R_front_hand02_02]
3 71.020844 -0.000030 -0.000119 0.002323 -0.000334 106.381386 71.020836
4 71.020844 -0.000030 -0.000119 0.001777 0.001534 8.377220 71.020836
[R_front_hand03_02]
3 71.020905 0.000000 0.000030 0.002323 -0.000334 106.381386 71.020905
4 71.020905 0.000000 0.000030 0.001777 0.001534 8.377220 71.020905
[null_rope01_connect]
3 328.732483 0.000000 -0.000238 -152.694016 -40.228390 -130.211411 328.732483
4 328.732483 0.000000 -0.000238 -157.419342 -19.339796 -112.140556 328.732483
[Rope1_Seg01]
3 0.000000 0.000000 0.000000 118.158081 58.130894 141.675232 0.000000
4 0.000000 0.000000 0.000000 133.065704 45.976715 168.595703 0.000000
[Rope1_Seg02]
3 139.999863 -0.000179 0.000000 -0.725587 -2.281076 6.410656 139.999863
4 139.999863 -0.000179 0.000000 -1.591664 -4.334260 9.025050 139.999863
[Rope1_Seg03]
3 139.999924 0.000060 -0.000060 -0.813984 -4.463747 12.197537 139.999924
4 139.999924 0.000060 -0.000060 -2.615664 -9.619855 19.600948 139.999924
[Rope1_Seg04]
3 139.999924 -0.000060 -0.000119 0.606956 -10.101795 27.250217 139.999924
4 139.999924 -0.000060 -0.000119 -1.389695 -16.988630 36.278343 139.999924
[Rope1_Seg05]
3 139.999832 0.000119 -0.000060 18.002745 -9.213810 34.563026 139.999832
4 139.999832 0.000119 -0.000060 12.246526 -12.429758 26.570406 139.999832
[Rope1_Seg06]
3 139.999954 0.000119 -0.000060 13.439757 0.916299 9.007981 139.999954
4 139.999954 0.000119 -0.000060 14.845811 -1.945165 9.011410 139.999954
[Rope1_Seg07]
3 139.999985 0.000060 0.000000 8.011809 1.321143 3.967225 139.999985
4 139.999985 0.000060 0.000000 12.420035 0.300360 4.298823 139.999985
[Rope1_Seg09]
3 121.602913 0.000119 -0.000089 -89.793175 -1.359789 0.847147 121.602913
4 121.602913 0.000119 -0.000089 -89.793175 -1.359789 0.847147 121.602913
[L_mid_hand01]
3 103.859421 1.038730 8.195221 111.431305 -47.263851 -16.612017 104.187431
4 103.859421 1.038730 8.195221 111.431305 -47.263851 -16.612017 104.187431
[L_mid_hand02]
3 105.572853 -4.139662 -10.864139 -150.709808 35.166882 -45.161087 106.211075
4 105.572853 -4.139662 -10.864139 -150.709808 35.166882 -45.161087 106.211075
[L_mid_hand03]
3 104.641464 17.579376 -3.913581 -12.649597 13.975001 50.985863 106.179977
4 104.641464 17.579376 -3.913581 -12.649596 13.974999 50.985855 106.179977
[null_rope02_connect]
3 328.732849 0.000179 -0.000119 -110.884438 56.268890 7.146244 328.732849
4 328.732849 0.000179 -0.000119 -75.262436 67.570992 35.139053 328.732849
[Rope2_Seg01]
3 -0.000027 0.000079 0.000105 -110.812065 70.103531 -4.226131 0.000135
4 -0.000022 0.000081 0.000101 154.612350 70.475052 -85.358627 0.000131
[Rope2_Seg02]
3 139.999741 -0.000060 -0.000119 0.761759 -14.556020 3.734308 139.999756
4 139.999741 -0.000060 -0.000119 2.863739 -15.103917 -0.098597 139.999756
[Rope2_Seg03]
3 140.000107 0.000030 0.000000 -1.473785 -25.315958 8.140360 140.000107
4 140.000107 0.000030 0.000000 0.219598 -33.496017 1.438645 140.000107
[Rope2_Seg04]
3 139.999802 0.000000 -0.000060 -5.853975 -32.736446 9.510867 139.999802
4 139.999802 0.000000 -0.000060 -11.262182 -38.585197 2.581797 139.999802
[Rope2_Seg05]
3 139.999985 -0.000060 0.000119 -6.060313 -14.558711 1.530405 139.999985
4 139.999985 -0.000060 0.000119 -13.405215 -16.296040 -1.435796 139.999985
[Rope2_Seg06]
3 139.999893 -0.000030 -0.000119 -3.574445 -5.654778 0.207970 139.999893
4 139.999893 -0.000030 -0.000119 -9.785734 -6.262524 -2.156306 139.999893
[Rope2_Seg07]
3 139.999893 0.000060 -0.000060 -2.569327 -3.121848 -0.071837 139.999893
4 139.999893 0.000060 -0.000060 -6.961160 -3.138176 -1.755483 139.999893
[Rope2_Seg09]
3 121.338966 0.000089 -0.000060 33.793236 -1.359788 -0.847141 121.338966
4 121.338966 0.000089 -0.000060 33.793236 -1.359788 -0.847141 121.338966
[R_mid_hand01]
3 104.680779 11.144459 -10.335981 -34.269650 35.095989 42.885235 105.778534
4 104.680779 11.144459 -10.335981 -34.269650 35.095989 42.885235 105.778534
[R_mid_hand02]
3 104.070427 2.443552 8.231699 68.449066 -47.537163 16.779839 104.424065
4 104.070427 2.443552 8.231699 68.449066 -47.537163 16.779839 104.424065
[R_mid_hand03]
3 106.028137 -11.221827 -5.996406 -171.106766 13.128626 -52.726494 106.788818
4 106.028137 -11.221827 -5.996406 -171.106766 13.128626 -52.726494 106.788818
[spine02]
3 129.756927 0.001550 0.000119 -0.245322 -4.052060 -4.355547 129.756927
4 129.756927 0.001550 0.000119 -0.245322 -4.052060 -4.355547 129.756927
[spine03]
3 78.613724 0.087140 -4.898794 0.369659 4.260735 -4.885721 78.766251
4 78.613724 0.087146 -4.898789 0.369659 4.260734 -4.885720 78.766251
[pelvis]
3 169.435242 0.051022 0.000000 -0.010031 -0.194709 -1.851389 169.435257
4 169.435242 0.051022 0.000000 -0.010044 -0.196355 -1.828306 169.435257
[null_rope03_connect]
3 -1.257226 -2.466202 137.391083 -151.470718 -70.059830 -82.934479 137.418976
4 -1.257226 -2.466202 137.391083 -152.305130 -49.871773 -77.101448 137.418976
[null_rope04_connect]
3 -1.259640 -2.480268 -137.844437 -151.470718 -70.059830 -82.934479 137.872513
4 -1.259640 -2.480268 -137.844437 -152.305130 -49.871773 -77.101448 137.872513
[Rope3_Seg01]
3 0.000000 0.000000 0.000000 170.820053 -44.250191 -14.699935 0.000000
4 0.000000 0.000000 0.000000 -171.323532 -23.346371 -2.533513 0.000000
[Rope3_Seg02]
3 139.999924 -0.000119 0.000060 -57.914631 0.142313 -31.841192 139.999924
4 139.999924 -0.000119 0.000060 161.376587 -13.102715 -16.836721 139.999924
[Rope3_Seg03]
3 139.999924 -0.000119 0.000119 -47.083858 21.931002 -10.809400 139.999924
4 139.999924 -0.000119 0.000119 15.657464 4.581314 18.960854 139.999924
[Rope3_Seg04]
3 139.999924 0.000119 0.000000 -12.911414 15.635666 2.427055 139.999924
4 139.999924 0.000119 0.000000 1.618135 6.860009 11.803020 139.999924
[Rope3_Seg05]
3 139.999924 -0.000238 0.000060 -11.298518 23.956907 3.679974 139.999924
4 139.999924 -0.000238 0.000060 -1.811516 15.993036 15.087220 139.999924
[Rope3_Seg06]
3 139.999893 -0.000119 -0.000060 -2.374881 17.147911 6.461208 139.999893
4 139.999893 -0.000119 -0.000060 0.872333 15.249297 15.176510 139.999893
[Rope3_Seg07]
3 139.999771 0.000060 -0.000119 0.119804 8.184555 3.938017 139.999771
4 139.999771 0.000060 -0.000119 0.881848 7.089730 7.782529 139.999771
[Rope3_Seg08]
3 139.999985 -0.000060 0.000000 0.526850 4.484406 2.160619 139.999985
4 139.999985 -0.000060 0.000000 0.737875 3.885244 4.184450 139.999985
[Rope3_Seg09]
3 90.185997 -0.000179 -0.000060 89.793228 -1.359877 -0.847183 90.185997
4 90.185997 -0.000179 -0.000060 89.793228 -1.359877 -0.847183 90.185997
[R_rear_hand01]
3 103.366196 -6.073594 -10.757982 -166.970291 21.129854 -46.704182 104.101845
4 103.366196 -6.073594 -10.757982 -166.970291 21.129850 -46.704182 104.101845
[R_rear_hand02]
3 100.509819 12.039542 -7.992327 -28.148869 27.804199 44.102722 101.543350
4 100.509819 12.039542 -7.992327 -28.148869 27.804199 44.102722 101.543350
[R_rear_hand03]
3 101.539970 5.215704 5.435467 81.628395 -47.127728 10.016968 101.819031
4 101.539970 5.215704 5.435467 81.628380 -47.127724 10.016966 101.819031
[Rope4_Seg01]
3 0.000000 0.000000 0.000000 91.705879 -50.252647 -149.250763 0.000000
4 0.000000 0.000000 0.000000 140.736099 -71.529594 178.089630 0.000000
[Rope4_Seg02]
3 139.999985 0.000060 0.000119 28.632959 -26.799046 41.823261 139.999985
4 139.999985 0.000060 0.000119 14.263285 -1.975868 36.985874 139.999985
[Rope4_Seg03]
3 139.999924 0.000000 -0.000238 9.939320 3.769498 25.765432 139.999924
4 139.999924 0.000000 -0.000238 3.455885 8.101061 25.850874 139.999924
[Rope4_Seg04]
3 139.999985 0.000000 0.000119 2.331360 0.428601 11.476277 139.999985
4 139.999985 0.000000 0.000119 -1.161393 2.387695 11.677686 139.999985
[Rope4_Seg05]
3 139.999802 -0.000060 -0.000119 1.577409 -2.776577 13.880601 139.999802
4 139.999802 -0.000060 -0.000119 -2.598497 -3.492401 9.683794 139.999802
[Rope4_Seg06]
3 139.999924 0.000000 0.000060 0.663335 -2.661702 13.483448 139.999924
4 139.999924 0.000000 0.000060 -2.820338 -5.651461 9.145180 139.999924
[Rope4_Seg07]
3 139.999802 0.000000 0.000000 0.137236 -0.845499 7.816160 139.999802
4 139.999802 0.000000 0.000000 -1.433308 -2.788149 5.832582 139.999802
[Rope4_Seg08]
3 139.999924 0.000000 0.000119 -1.613520 -0.504866 4.808004 139.999924
4 139.999924 0.000000 0.000119 -2.394782 -1.758976 3.615946 139.999924
[Rope4_Seg09]
3 90.185791 0.000060 0.000060 -135.617828 2.228885 0.850567 90.185791
4 90.185791 0.000060 0.000060 -135.617828 2.228885 0.850567 90.185791
[L_rear_hand01]
3 101.696655 -8.392275 -7.654577 -27.705481 -28.251705 134.947800 102.329041
4 101.696655 -8.392275 -7.654577 -27.705481 -28.251705 134.947800 102.329041
[L_rear_hand02]
3 102.726799 -1.568258 5.773216 81.477219 48.065086 169.775513 102.900848
4 102.726799 -1.568258 5.773216 81.477219 48.065086 169.775513 102.900848
[L_rear_hand03]
3 104.552910 9.721220 -10.420293 -167.330078 -21.338425 -132.303940 105.519653
4 104.552910 9.721220 -10.420293 -167.330078 -21.338425 -132.303940 105.519653
